<?xml version="1.0" encoding="UTF-8"?>
<svg xmlns="http://www.w3.org/2000/svg" xmlns:xlink="http://www.w3.org/1999/xlink" viewBox="0 0 100 100" width="100px" height="100px">
<g id="surface110535592">
<path style=" stroke:none;fill-rule:nonzero;fill:rgb(69.01961%,69.01961%,69.01961%);fill-opacity:1;" d="M 43.332031 10 C 24.964844 10 10 24.964844 10 43.332031 C 10 61.703125 24.964844 76.667969 43.332031 76.667969 C 51.320312 76.667969 58.65625 73.828125 64.40625 69.121094 L 84.308594 89.023438 C 85.144531 89.894531 86.386719 90.246094 87.554688 89.941406 C 88.722656 89.636719 89.636719 88.722656 89.941406 87.554688 C 90.246094 86.386719 89.894531 85.144531 89.023438 84.308594 L 69.121094 64.40625 C 73.828125 58.65625 76.667969 51.320312 76.667969 43.332031 C 76.667969 24.964844 61.703125 10 43.332031 10 Z M 43.332031 16.667969 C 58.101562 16.667969 70 28.566406 70 43.332031 C 70 58.101562 58.101562 70 43.332031 70 C 28.566406 70 16.667969 58.101562 16.667969 43.332031 C 16.667969 28.566406 28.566406 16.667969 43.332031 16.667969 Z M 43.332031 16.667969 "/>
</g>
</svg>
